<?xml version="1.0" encoding="UTF-8" standalone="no"?><svg xmlns:rdf="http://www.w3.org/1999/02/22-rdf-syntax-ns#" xmlns="http://www.w3.org/2000/svg" height="421.59999" width="195.7954" version="1.1" xmlns:cc="http://creativecommons.org/ns#" xmlns:dc="http://purl.org/dc/elements/1.1/" viewBox="0 0 195.7954 421.59999"><defs><style>.cls-1{fill:#fff;}.cls-2{fill:#008348;}.cls-3{fill:#1d428a;}.cls-4{fill:#c8102e;}.cls-5{fill:#fdb927;}</style></defs><title>Basketball Africa League logo</title><path class="cls-1" d="M176.157,24.41926h0C173.21493,10.8857,154.974,0,141.44048,0H49.64759C36.114,0,22.87467,10.88569,19.63838,24.12505h0a897.04952,897.04952,0,0,0,0,373.3499h0C22.58046,410.71431,36.114,421.6,49.64759,421.6h96.50022c13.53356,0,26.77292-10.88568,30.00922-24.125h0A895.65144,895.65144,0,0,0,176.157,24.41926Z"/><path class="cls-2" d="M63.47536,411.59694h74.72882a10.58388,10.58388,0,0,1-5.29574-3.53049c-5.88416-6.17838-3.8247-9.41464-2.05946-14.41617s-1.76524-7.061-2.35366-11.17991,3.5305-12.35673,4.41312-16.47564a9.19261,9.19261,0,0,1,4.11892-5.88416h0c.58841-1.471-.29421-5.59-2.35367-18.53512-.88262-5.29575-10.29727-22.94823-10.88569-25.89031-1.17684-8.23783,2.35366-17.94668.88262-21.183a24.22072,24.22072,0,0,1-1.76524-4.70732c-.29421-2.05945-2.94208-7.64941-2.94208-7.64941l-1.76525-4.70732a7.87437,7.87437,0,0,1-2.94208-.58841c-1.76524-7.6494-10.29728-33.83391-10.29728-33.83391-3.23628,3.23628-11.47411,28.244-14.122,33.24551a6.64279,6.64279,0,0,1-2.64787,0c-.58841,1.17683-6.47257,13.53356-7.94361,20.00615-2.94208,10.29728,7.061,12.06252-7.94362,38.54124-2.05946,3.82471-5.29574,20.88876-6.47258,28.53816l1.17683.2942c2.05946,1.17684,1.471,2.94208,1.471,5.58994,0,10.29728,2.94208,6.47256,2.35366,12.94513-.88262,7.94361-2.94208,6.17839-3.8247,9.70887-.58842,6.7668,1.76525,7.64943,0,14.41618A20.80549,20.80549,0,0,1,63.47536,411.59694Z"/><path class="cls-3" d="M87.30621,26.18451v-.58842a1.08081,1.08081,0,0,1,.29421-.88262c0-.29421,0-.29421.29421-.58842a1.02715,1.02715,0,0,1,.29421-.58841,1.0272,1.0272,0,0,1,.29421-.58842c0-.29421.29421-.29421.29421-.58841s.29421-.58842.29421-.88263.2942-.29421.2942-.58841.29421-.58842.29421-.88263a.28815.28815,0,0,1,.29421-.29421c.29421-.29421.29421-.58841.58842-.88262a.28815.28815,0,0,1,.29421-.29421c.29421-.29421.29421-.58842.58842-.88262a.28815.28815,0,0,1,.29421-.29421,1.08074,1.08074,0,0,1,.29419-.88263l.2942-.2942.88262-.88263h0l.88263-.88262h0l.88263-.88262h0l.88262-.88263h0a4.06132,4.06132,0,0,1,1.17684-.88262h0a2.2304,2.2304,0,0,1,1.17683-.58842h0a2.23044,2.23044,0,0,1,1.17684-.58841,1.02724,1.02724,0,0,0,.58842-.29421H48.17655a1.76885,1.76885,0,0,0-1.17683.29421h-.29421c-.29421,0-.88262.2942-1.17683.2942h-.29421c-.29421,0-.88262.29421-1.17683.29421h0c-.29421,0-.88262.29421-1.17683.29421H42.5866c-.29421.29421-.58841.29421-1.17683.58842h0c-.29421.2942-.58841.2942-.88262.58841h-.29421c-.29421.29421-.58842.29421-1.17683.58842H38.7619c-.29421.2942-.58842.2942-.88263.58841h0l-.88262.88263-.29421.2942-.88262.88263h0l-.88263.88262-.29421.29421-.88262.88263h0c-.29421.29421-.58842.58841-.58842.88262l-.29421.29421c-.29421.29421-.58841.58842-.58841.88263v.2942c-.29421.29421-.29421.58842-.58842.88263v.29421c-.29421.29421-.29421.58841-.58841.88262V22.654a1.08083,1.08083,0,0,0-.29421.88263h0c0,.2942-.29421.58841-.29421,1.17683v.29421c0,.2942-.29421.58841-.29421,1.17683a877.5917,877.5917,0,0,0-.58841,369.231c2.05946,8.532,10.8857,15.88721,19.41773,16.18144a26.83011,26.83011,0,0,1-1.76525-4.70735,25.84435,25.84435,0,0,1,.88262-14.41617,52.7434,52.7434,0,0,0,2.64787-9.41465,44.73967,44.73967,0,0,0,.58842-8.23783c0-4.41312,0-9.70887,1.17683-10.59148a6.53083,6.53083,0,0,1,1.471-1.17684h.58842L55.826,346.577s-.88263-22.3598.58841-34.12812c.88263-6.76679,6.47258-16.18144,6.47258-16.18144l1.471-14.41619c.58842-6.76679.58842-12.35673.58842-12.35673-1.17683-.88263-2.05946-1.471-2.05946-1.471A370.27418,370.27418,0,0,1,72.89,223.00963c1.76525-5.58995,6.76678-17.35827,7.64941-19.71192a107.26712,107.26712,0,0,1,4.11891-10.29728c3.23629-7.6494,5.29574-7.94361,5.29574-7.94361,1.17683-2.94207.58842-5.58995,1.17683-7.6494-.88262-.58842-1.76525-2.94208-2.05946-9.41466-.2942-5.00153-2.05945-19.41772-2.94208-26.1845-.88262-7.94361-1.471-16.76985-.58841-17.35827,0-.58842-1.17683-2.35366-.88263-4.41312l-.2942-.88262c-.58842-2.35366.58841-6.76678-3.5305-9.12045a10.5396,10.5396,0,0,0-3.23629-1.17683c-7.64941-2.05946-14.7104-8.23782-17.65248-11.1799C50.5302,87.674,46.11709,86.79137,43.46921,81.49563c-1.76525-3.8247-2.94208-5.88416-2.94208-8.23782a4.19106,4.19106,0,0,1,.58842-1.17683c.29421-.29421.58841-.88262,1.17683-.88262,4.11891-1.76525,7.94361-8.23783,18.82931-14.122,7.94362-4.41312,12.94515-6.17837,17.06406-8.532,2.05946-1.471,3.8247-2.94208,5.00154-3.8247s2.94208-2.94208,4.11891-3.5305c.29421,0,.58842-.29421.88262-.29421a24.30927,24.30927,0,0,1-1.76525-13.23936A2.68833,2.68833,0,0,0,87.30621,26.18451Z"/><path class="cls-4" d="M166.154,26.47872c-2.05946-8.532-11.1799-16.18144-20.00614-16.18144H121.43435c.2942,0,.58842,0,.58842.29421.2942,0,.88262.2942,1.17683.2942h0c.58842.29421.88262.58842,1.471.58842h2.05943c.2942,0,.2942,0,.58841.29421.29421,0,.88263.29421,1.17684.29421,1.17684.58841,1.471,1.76524,2.35366,2.64787.29421,0,.29421.2942.58842.2942a2.24736,2.24736,0,0,1,.58842,1.471c.58842,2.05946,1.17684,3.82471,1.76524,5.88416.29421.58842.58842,1.76525,1.17684,2.05946a2.51457,2.51457,0,0,1,.88262,1.76525,4.38481,4.38481,0,0,1-.88262,2.35366c1.17683,3.23629,3.8247,10.00307,3.8247,10.00307s2.35366,5.29574,4.11892,8.532c4.70732,9.70886,5.88416,13.82778,5.59,25.00768-.2942,8.82624,5.88416,10.59149,5.00154,22.654,0,1.471,5.00154,9.12044,1.76524,18.53509-1.17683,3.82471-2.94208,8.23783-3.8247,10.59149,0,4.70732-1.17684,8.82624-2.05946,12.35673a.28815.28815,0,0,0,.29421.29421c.2942,2.35366-1.17684,10.00307-1.76525,11.76832-.58841,2.05945-2.64787,8.23782-3.53049,11.1799-.29421,1.17683-1.76525,5.29574-2.94208,8.82624-.88263,4.70732-1.76525,8.532-2.94208,10.59149a10.32088,10.32088,0,0,0-1.471,2.35367,65.61642,65.61642,0,0,0,1.17683,6.76679c2.35366,3.23629,6.47258,12.651,7.64941,24.12505.88262,10.88568,3.8247,18.24088,1.471,41.48332-.29421,7.6494-.29421,13.53356-.58842,15.593a6.09215,6.09215,0,0,1-2.94208,1.471l-.29421,3.23628V284.4991c1.17684,6.47257,5.88416,18.82932,5.88416,26.18452,0,5.00152.88262,47.95588.88262,50.30956h0s3.23629,2.94208,2.05946,5.88416,1.17684,8.82623-.88262,19.12351,2.64788,10.88569.88262,19.12352a7.9246,7.9246,0,0,1-4.41312,5.58994c8.23782-.58841,17.06406-7.94361,18.82932-15.88722A893.088,893.088,0,0,0,166.154,26.47872Z"/><path class="cls-5" d="M127.90691,50.60377l-.58841-3.8247a23.21024,23.21024,0,0,1-14.7104,7.64941c-1.17684.88262-4.11892,1.471-6.17837,1.471a32.79751,32.79751,0,0,1-7.6494-.58842,5.54254,5.54254,0,0,1-2.35366-.58842c-1.471-.29421-2.35366-1.17683-3.23628-1.471a7.09926,7.09926,0,0,0-5.00154,0C85.541,54.72268,76.71474,64.72575,72.89,69.43308c-2.64787,3.5305-8.23782,7.061-10.59149,8.82624a2.65228,2.65228,0,0,1,1.471.29421h.29421a1.08083,1.08083,0,0,1,.88263.29421h.58841a1.08083,1.08083,0,0,1,.88263.29421h.58841c.29421,0,.58842,0,.58842.2942h.58842c.29421,0,.58842,0,.58842.29421.29421,0,.29421,0,.58842.29421a1.02715,1.02715,0,0,1,.58841.29421.28815.28815,0,0,1,.29421.29421c.29421,0,.29421.29421.58842.29421a.28815.28815,0,0,1,.29421.29421c.29421,0,.29421.29421.58842.29421a.28815.28815,0,0,1,.29421.29421,1.0272,1.0272,0,0,1,.58842.29421h.29421c.2942.29421.58841.29421.88262.58841h0a6.15493,6.15493,0,0,1,1.76525,1.17683h0c.2942.29421.58841.29421.58841.58842h.29421c.29421,0,.29421.2942.58842.2942l.29421.2942c.29421,0,.29421.29421.58842.29421l.29421.2942c.29421,0,.29421.2942.58842.2942l.2942.29421c.29421,0,.29421.2942.58842.2942h0a.28815.28815,0,0,1,.29421.29421h0c.29421.2942.29421.2942.29421.58841h0l.58842.58842h0c.58842.58842.88262,1.17684,1.17683,1.471h0l.29421.29421h0a.28814.28814,0,0,0,.29421.2942h0a.28814.28814,0,0,0,.29421.2942h0V90.616h0v.2942H94.073a1.08082,1.08082,0,0,1,.88262.2942h.29421a1.08081,1.08081,0,0,1,.88262.29421h0a1.08083,1.08083,0,0,1,.88262.2942h0a1.02725,1.02725,0,0,1,.58842.2942,26.46225,26.46225,0,0,1,7.3552,4.70733l1.471,1.17683a2.20472,2.20472,0,0,0,1.471-.2942,12.99137,12.99137,0,0,0,.58842-5.00154c-1.76525-.58842-2.05946-6.17836-1.76525-10.00307a12.32881,12.32881,0,0,1,2.35366-5.59c.88263-.88262-.58841-4.11891.58842-5.29574.88262-1.17683,5.59-9.70886,15.29882-7.94362a15.50721,15.50721,0,0,1,4.41312,1.471A63.29787,63.29787,0,0,1,127.90691,50.60377Z"/><polygon class="cls-1" points="50.236 293.325 37.291 295.091 37.291 240.662 29.053 240.662 29.053 295.679 29.053 301.269 29.053 301.269 50.236 301.269 50.236 293.325"/><path class="cls-1" d="M43.76343,137.68932c7.061-3.53049,6.76678-9.41465,6.76678-12.35673V107.38591H28.75883v60.60684H50.53021V150.04607c0-2.94209.29421-8.82625-6.76678-12.35675m-1.471,23.24244H36.70244V141.514s5.58995,2.64787,5.58995,8.82624Zm0-35.59916c0,5.88416-5.58995,8.82624-5.58995,8.82624V114.74112h5.58995Z"/><path class="cls-1" d="M45.52868,174.17112H34.05457L28.17041,234.778h8.23783l.29421-6.17836,5.88416-2.35367.29421,8.532h8.532Zm-8.532,46.77907,2.64787-39.71808,2.35366,39.12965Z"/></svg>